<svg width="48" height="48" viewBox="0 0 48 48" fill="none" xmlns="http://www.w3.org/2000/svg">
<rect width="48" height="48" rx="9" fill="#242938"/>
<g clip-path="url(#clip0_1_7)">
<path d="M42 12.0016L40.7001 31.2846L28.2712 6L42 12.0016ZM33.3914 36.9356L24.0001 41.9975L14.6086 36.9356L16.5188 32.5627H31.4812L33.3914 36.9356ZM24.0001 15.5977L28.9212 26.8993H19.0788L24.0001 15.5977ZM7.28658 31.2846L6 12.0016L19.7288 6L7.28658 31.2846Z" fill="url(#paint0_linear_1_7)"/>
<path d="M42 12.0016L40.7001 31.2846L28.2712 6L42 12.0016ZM33.3914 36.9356L24.0001 41.9975L14.6086 36.9356L16.5188 32.5627H31.4812L33.3914 36.9356ZM24.0001 15.5977L28.9212 26.8993H19.0788L24.0001 15.5977ZM7.28658 31.2846L6 12.0016L19.7288 6L7.28658 31.2846Z" fill="url(#paint1_linear_1_7)"/>
</g>
<defs>
<linearGradient id="paint0_linear_1_7" x1="908.556" y1="3279.21" x2="3466.68" y2="1992.34" gradientUnits="userSpaceOnUse">
<stop stop-color="#E40035"/>
<stop offset="0.24" stop-color="#F60A48"/>
<stop offset="0.352" stop-color="#F20755"/>
<stop offset="0.494" stop-color="#DC087D"/>
<stop offset="0.745" stop-color="#9717E7"/>
<stop offset="1" stop-color="#6C00F5"/>
</linearGradient>
<linearGradient id="paint1_linear_1_7" x1="793.068" y1="440.058" x2="2467.07" y2="2461.5" gradientUnits="userSpaceOnUse">
<stop stop-color="#FF31D9"/>
<stop offset="1" stop-color="#FF5BE1" stop-opacity="0"/>
</linearGradient>
<clipPath id="clip0_1_7">
<rect width="36" height="36" fill="white" transform="translate(6 6)"/>
</clipPath>
</defs>
</svg>
