<svg width="48" height="48" viewBox="0 0 48 48" fill="none" xmlns="http://www.w3.org/2000/svg">
<rect width="48" height="48" rx="9" fill="#F34F29"/>
<path d="M7.0673 21.4601L17.4791 11.0303L20.5234 14.0926C20.0911 15.6237 20.7936 17.299 22.1986 18.1096V28.0891C21.1178 28.7015 20.3973 29.8724 20.3973 31.2054C20.3973 32.1609 20.7769 33.0773 21.4525 33.7529C22.1281 34.4285 23.0445 34.8081 24 34.8081C24.9555 34.8081 25.8719 34.4285 26.5475 33.7529C27.2231 33.0773 27.6027 32.1609 27.6027 31.2054C27.6027 29.8724 26.8822 28.7015 25.8014 28.0891V19.3345L29.5301 23.0993C29.4041 23.3695 29.4041 23.6758 29.4041 24C29.4041 24.9555 29.7836 25.8719 30.4593 26.5475C31.1349 27.2231 32.0513 27.6027 33.0068 27.6027C33.9623 27.6027 34.8786 27.2231 35.5542 26.5475C36.2299 25.8719 36.6095 24.9555 36.6095 24C36.6095 23.0445 36.2299 22.1281 35.5542 21.4525C34.8786 20.7769 33.9623 20.3973 33.0068 20.3973C32.6825 20.3973 32.3763 20.3973 32.1061 20.5234L27.4766 15.8939C27.7003 15.0596 27.6136 14.1725 27.2326 13.3972C26.8516 12.622 26.2022 12.0114 25.4051 11.6788C24.6305 11.3905 23.8199 11.3185 23.0993 11.5166L20.037 8.47235L21.4601 7.0673C22.8651 5.64423 25.1349 5.64423 26.5399 7.0673L40.9327 21.4601C42.3558 22.8651 42.3558 25.1349 40.9327 26.5399L26.5399 40.9327C25.1349 42.3558 22.8651 42.3558 21.4601 40.9327L7.0673 26.5399C5.64423 25.1349 5.64423 22.8651 7.0673 21.4601Z" fill="white"/>
</svg>
