<svg width="48" height="48" viewBox="0 0 48 48" fill="none" xmlns="http://www.w3.org/2000/svg">
<rect width="48" height="48" rx="9" fill="#181717"/>
<path d="M15.9514 6.59312C17.3018 7.05057 18.5865 7.68293 19.7726 8.47405C21.4478 8.04591 23.1703 7.83083 24.8993 7.83389C26.685 7.83389 28.4076 8.05687 30.0224 8.47226C31.2081 7.6819 32.4922 7.05015 33.8419 6.59312C35.0952 6.16694 36.8808 5.47643 37.9418 6.65066C38.6611 7.44907 38.8409 8.78694 38.9686 9.80833C39.1124 10.9484 39.1466 12.4337 38.769 13.9083C40.2129 15.773 41.0833 17.9974 41.0833 20.4214C41.0833 24.0934 39.0944 27.2816 36.1508 29.4898C34.7341 30.5391 33.1629 31.3617 31.4934 31.9282C31.8782 32.8093 32.0922 33.7839 32.0922 34.8071V40.2018C32.0922 40.6787 31.9027 41.1361 31.5655 41.4733C31.2283 41.8105 30.7709 42 30.294 42H19.5047C19.0278 42 18.5704 41.8105 18.2331 41.4733C17.8959 41.1361 17.7065 40.6787 17.7065 40.2018V38.4198C15.9892 38.6301 14.5488 38.4431 13.3242 37.9234C12.0439 37.3804 11.152 36.5388 10.4812 35.7332C9.84466 34.9708 9.15055 33.2517 8.14714 32.9172C7.92304 32.8426 7.71583 32.7246 7.53734 32.5699C7.35886 32.4152 7.21259 32.2268 7.10689 32.0156C6.89342 31.589 6.85816 31.0951 7.00887 30.6425C7.15958 30.1899 7.4839 29.8157 7.9105 29.6022C8.33709 29.3887 8.83102 29.3535 9.28361 29.5042C10.4812 29.9034 11.2617 30.7665 11.7957 31.4607C12.6589 32.5755 13.3602 34.0321 14.7268 34.6129C15.2897 34.8521 16.115 35.0085 17.4062 34.8323L17.7065 34.7712C17.7099 33.7926 17.9137 32.825 18.3053 31.9282C16.6358 31.3618 15.0645 30.5392 13.6479 29.4898C10.7042 27.2816 8.71538 24.0952 8.71538 20.4214C8.71538 18.001 9.58392 15.7784 11.0243 13.9155C10.6467 12.4409 10.679 10.952 10.8229 9.81013L10.8319 9.7418C10.9631 8.69523 11.116 7.46346 11.8497 6.65066C12.9106 5.47643 14.698 6.16874 15.9496 6.59492L15.9514 6.59312Z" fill="white"/>
</svg>
