<svg width="48" height="48" viewBox="0 0 48 48" fill="none" xmlns="http://www.w3.org/2000/svg">
<rect width="48" height="48" rx="9" fill="#C21325"/>
<g clip-path="url(#clip0_1_76)">
<path d="M39.3765 23.73C39.3747 22.6975 39.0311 21.6946 38.3994 20.8778C37.7677 20.061 36.8834 19.4764 35.8845 19.215L40.3665 6H18.156L22.65 19.257C21.6798 19.5398 20.8274 20.1294 20.2206 20.9374C19.6137 21.7455 19.2851 22.7285 19.284 23.739C19.2858 24.4841 19.4654 25.2179 19.808 25.8796C20.1505 26.5412 20.6461 27.1115 21.2535 27.543C20.775 28.2176 20.2303 28.8427 19.6275 29.409C18.5187 30.4651 17.2211 31.3031 15.8025 31.8795C14.5515 31.035 14.01 29.5455 14.499 28.2105C15.5632 27.8799 16.4739 27.1794 17.0663 26.2355C17.6588 25.2917 17.8938 24.167 17.7288 23.0649C17.5639 21.9629 17.0099 20.9562 16.1671 20.2272C15.3243 19.4982 14.2483 19.095 13.134 19.0905C11.896 19.0921 10.7093 19.5846 9.83391 20.4599C8.95855 21.3353 8.46608 22.5221 8.46449 23.76C8.46449 25.032 8.98499 26.199 9.81899 27.033C9.74699 27.1785 9.67349 27.3255 9.59999 27.4815C8.90249 28.92 8.11049 30.546 7.80749 32.37C7.20299 36.018 8.19299 38.946 10.581 40.6035C11.8734 41.515 13.4169 42.003 14.9985 42C17.739 42 20.5215 40.6245 23.211 39.2895C25.1295 38.3415 27.1095 37.3515 29.058 36.8715C29.778 36.6945 30.528 36.591 31.32 36.4755C32.925 36.246 34.5825 36.0075 36.072 35.1405C36.9226 34.6531 37.6563 33.9855 38.2217 33.1845C38.7871 32.3836 39.1705 31.4687 39.345 30.504C39.606 29.013 39.345 27.513 38.679 26.199C39.126 25.479 39.3765 24.6375 39.3765 23.73ZM37.344 23.73C37.344 25.1775 36.1665 26.355 34.719 26.355C34.1739 26.3535 33.6427 26.1826 33.199 25.866C32.7553 25.5494 32.4209 25.1027 32.2422 24.5877C32.0635 24.0728 32.0492 23.515 32.2013 22.9915C32.3535 22.4681 32.6646 22.0049 33.0915 21.666L33.102 21.6555C33.186 21.5925 33.279 21.5295 33.372 21.468C33.372 21.468 33.384 21.468 33.384 21.4575C33.426 21.4365 33.4665 21.405 33.5085 21.3825C33.519 21.3825 33.5295 21.3735 33.54 21.3735C33.582 21.3525 33.6345 21.3315 33.6855 21.3105C33.738 21.2895 33.7905 21.27 33.8325 21.249C33.843 21.249 33.852 21.2385 33.8625 21.2385C33.9045 21.228 33.9465 21.207 33.9885 21.1965C33.999 21.1965 34.0185 21.186 34.0305 21.186C34.0815 21.1755 34.1235 21.165 34.176 21.156H34.1865L34.3425 21.123C34.353 21.123 34.3725 21.123 34.3845 21.1125C34.4265 21.1125 34.467 21.102 34.509 21.102H34.5615C34.614 21.102 34.6665 21.0915 34.728 21.0915H34.863C34.905 21.0915 34.938 21.0915 34.9785 21.102H34.9995C35.082 21.1125 35.166 21.123 35.25 21.144C35.8417 21.2708 36.3722 21.5964 36.7532 22.0666C37.1342 22.5368 37.3427 23.1248 37.344 23.73ZM21.0645 8.085H37.4595L33.696 19.185C33.54 19.215 33.384 19.2675 33.228 19.32L29.268 11.2425L25.296 19.2675C25.14 19.2165 24.972 19.185 24.8055 19.1535L21.0645 8.085ZM28.5165 22.8225C28.3248 21.8604 27.832 20.9841 27.1095 20.3205L29.2665 15.9645L31.4445 20.415C30.7995 21.06 30.33 21.885 30.1425 22.8225H28.5165ZM23.295 21.1755C23.346 21.165 23.388 21.1545 23.4405 21.1455H23.4705C23.514 21.1335 23.5545 21.1335 23.5965 21.123H23.6385C23.6805 21.123 23.712 21.1125 23.7525 21.1125H24.159C24.201 21.1125 24.2325 21.123 24.264 21.123C24.285 21.123 24.294 21.123 24.3165 21.1335C24.357 21.144 24.3885 21.144 24.4305 21.1545C24.441 21.1545 24.4515 21.1545 24.4725 21.165L24.618 21.195H24.6285C24.6705 21.207 24.7125 21.2175 24.753 21.2385C24.7635 21.2385 24.774 21.249 24.795 21.249C24.8265 21.2595 24.8685 21.27 24.9 21.2895C24.9105 21.2895 24.921 21.3 24.93 21.3C24.972 21.321 25.014 21.3315 25.056 21.3525H25.0665C25.1147 21.3707 25.1601 21.3954 25.2015 21.426H25.212C25.254 21.447 25.296 21.477 25.338 21.498C25.3485 21.498 25.3485 21.5085 25.3575 21.5085C25.3995 21.5295 25.4325 21.561 25.473 21.582L25.4835 21.5925C25.608 21.6855 25.7235 21.7905 25.8375 21.894L25.848 21.9045C26.3125 22.3938 26.5704 23.0434 26.568 23.718C26.545 24.3992 26.2582 25.0449 25.7681 25.5186C25.2781 25.9924 24.6231 26.2572 23.9415 26.2572C23.2599 26.2572 22.6049 25.9924 22.1149 25.5186C21.6248 25.0449 21.338 24.3992 21.315 23.718C21.3134 23.1339 21.5075 22.566 21.8664 22.1052C22.2253 21.6443 22.7283 21.317 23.295 21.1755ZM13.038 21.102C14.487 21.102 15.6645 22.281 15.6645 23.7285C15.6645 25.176 14.487 26.355 13.0395 26.355C11.592 26.355 10.4115 25.1775 10.4115 23.73C10.4115 22.2825 11.5905 21.102 13.038 21.102ZM37.2825 30.1395C37.1639 30.8063 36.8998 31.4388 36.5088 31.9918C36.1178 32.5449 35.6096 33.0049 35.0205 33.339C33.8835 33.996 32.487 34.2045 31.017 34.413C30.1905 34.5189 29.3695 34.6646 28.557 34.8495C26.3895 35.382 24.306 36.4245 22.284 37.425C19.698 38.706 17.259 39.915 14.9985 39.915C13.8393 39.9222 12.7079 39.5608 11.7675 38.883C9.47399 37.299 9.58799 34.329 9.85949 32.703C10.11 31.1805 10.8075 29.754 11.475 28.3875C11.517 28.305 11.5485 28.2315 11.5905 28.1475C11.8185 28.2315 12.0585 28.2945 12.309 28.3365C11.913 30.546 13.038 32.8275 15.228 33.954L15.624 34.1625L16.05 34.0065C17.874 33.36 19.563 32.307 21.054 30.9C21.8773 30.1323 22.6051 29.268 23.2215 28.326C23.4615 28.3665 23.7015 28.377 23.9415 28.377C24.9733 28.3746 25.9754 28.031 26.7915 27.3996C27.6076 26.7682 28.192 25.8846 28.4535 24.8865H30.204C30.4638 25.8862 31.0481 26.7713 31.8652 27.403C32.6824 28.0347 33.6861 28.3773 34.719 28.377C35.583 28.377 36.384 28.137 37.074 27.732C37.344 28.512 37.428 29.3265 37.2825 30.1395Z" fill="white"/>
</g>
<defs>
<clipPath id="clip0_1_76">
<rect width="36" height="36" fill="white" transform="translate(6 6)"/>
</clipPath>
</defs>
</svg>
