<svg width="48" height="48" viewBox="0 0 48 48" fill="none" xmlns="http://www.w3.org/2000/svg">
<rect width="48" height="48" rx="9" fill="#242938"/>
<path d="M24.0281 6.39375L7.57501 12.1031L9.93751 33.9281L24.0281 41.6063V6.39375Z" fill="#412846"/>
<path d="M23.9719 6.39375L40.425 12.1031L38.0625 33.9281L23.9719 41.6063V6.39375Z" fill="#4B314F"/>
<path d="M32.2125 18.4594L32.1844 18.4312C32.9344 19.275 33.3281 20.2687 33.3656 21.4125C33.3844 22.5562 32.9906 23.7656 32.1844 25.0406C32.7844 24.5719 33.4781 23.5781 34.2656 22.0594C34.6031 25.1531 33.3375 27.5062 30.4687 29.1187C31.3875 29.0437 32.5969 28.4437 34.0969 27.3187C32.5031 31.1812 29.5594 33.2156 25.2656 33.4219C21.1031 33.4219 18.4312 30.9469 18.4312 30.9469C16.725 29.6156 15.5531 27.9375 14.9156 25.9125C13.875 24.8156 13.875 24.7031 13.7625 24.2531C13.6781 23.8031 13.8469 23.6625 14.1281 23.2406C14.3344 22.9406 14.3812 22.5281 14.2687 22.0031C14.025 21.6469 13.8844 21.0937 13.8469 20.3437C13.8469 19.9687 14.0906 19.5844 14.5781 19.1906C15.0656 18.7781 15.3562 18.4687 15.45 18.2625C15.5437 18.15 15.5812 17.6437 15.5625 16.7437C15.5437 15.8625 16.0312 15.3844 17.025 15.3094C18.4875 15.1969 19.3031 14.1 19.7812 13.5937C20.0906 13.2562 20.5406 13.0875 21.1031 13.0875C21.9187 13.0594 22.65 13.3687 23.2969 14.0156C24.8719 13.9312 26.475 14.3531 28.1062 15.2812C30.4312 16.65 31.7062 18.1406 31.9312 19.7531C31.6687 21.8719 28.8375 21.8156 23.4375 19.5844C20.6062 20.3906 19.2094 22.125 19.2469 24.7875C19.2469 27.2437 20.4375 29.025 22.8187 30.1312C21.6656 29.0062 21.1594 28.05 21.3281 27.2625C23.7281 30.1125 26.4562 31.1812 29.5125 30.4687C28.1812 30.5062 27.1125 30.0656 26.3062 29.1469C28.3687 29.0906 30.3187 28.125 32.1562 26.25C31.1062 27.0937 29.9906 27.4125 28.8094 27.2062C31.9969 24.7125 33.1312 21.7969 32.2125 18.4594ZM26.8687 17.5875C26.8687 17.3344 26.6719 17.1375 26.4187 17.1375C26.1656 17.1375 25.9406 17.3344 25.9406 17.5875C25.9406 17.8406 26.1656 18.0656 26.4187 18.0656C26.6719 18.0656 26.8687 17.8406 26.8687 17.5875Z" fill="#BA2BD2"/>
</svg>
