<svg width="48" height="48" viewBox="0 0 48 48" fill="none" xmlns="http://www.w3.org/2000/svg">
<rect width="48" height="48" rx="9" fill="#143055"/>
<path d="M23.9804 27.207L19.2824 34.5914L11.493 21.951L11.475 35.1839H6V12.8161H11.5365L19.4069 26.0655L19.4144 20.0685L23.9804 27.207ZM24.8819 18.5655C24.9179 18.4935 24.8819 12.8896 24.8939 12.8161H19.4189C19.4219 12.9046 19.4114 18.48 19.4144 18.5655H24.8819ZM33.3328 24.7665C32.6938 24.7542 32.0666 24.9403 31.5377 25.2992C31.0088 25.6581 30.6041 26.1721 30.3794 26.7705C30.7516 26.2134 31.3028 25.8 31.9417 25.5985C32.5807 25.3969 33.2693 25.4193 33.8938 25.662C34.4878 25.9035 35.2693 26.295 35.8888 26.0865C35.5982 25.6793 35.2148 25.3472 34.7703 25.1177C34.3258 24.8881 33.8331 24.7678 33.3328 24.7665ZM38.4178 26.358C37.8553 26.163 37.2178 25.9425 36.7543 25.3365C36.6643 25.2165 36.5803 25.0815 36.4903 24.939C36.2895 24.5687 36.0178 24.2415 35.6908 23.976C35.2498 23.652 34.6708 23.493 33.9208 23.493C33.1836 23.4932 32.463 23.7123 31.8504 24.1224C31.2379 24.5326 30.7608 25.1154 30.4798 25.797C30.8361 25.3011 31.3163 24.9074 31.8724 24.6553C32.4285 24.4032 33.0411 24.3015 33.6488 24.3604C34.2566 24.4194 34.8382 24.6368 35.3355 24.9911C35.8329 25.3453 36.2285 25.8239 36.4828 26.379C36.6095 26.587 36.8002 26.7482 37.0263 26.8386C37.2524 26.9289 37.5017 26.9434 37.7368 26.88C38.4763 26.7225 38.4268 27.42 39.5413 27.657V27.4575C39.5368 26.7885 39.1738 26.6325 38.4178 26.358ZM41.4538 28.257C41.6172 28.1576 41.7515 28.0166 41.8429 27.8486C41.9343 27.6805 41.9796 27.4912 41.9743 27.3C41.9593 22.8645 38.3593 19.0695 33.9193 19.0695C32.5847 19.0684 31.2707 19.3994 30.0958 20.0325C28.9209 20.6657 27.9219 21.5812 27.1889 22.6965C27.1739 22.6575 24.9059 19.1115 24.8819 19.0695H19.4144L24.6089 27.204L19.5404 35.1839H24.8504L27.1604 31.635L29.5124 35.1839H34.8238L30.0089 27.606C29.9291 27.4583 29.8859 27.2937 29.8829 27.126C29.8827 26.596 29.9869 26.0711 30.1896 25.5814C30.3923 25.0917 30.6894 24.6467 31.0641 24.2719C31.4388 23.897 31.8837 23.5997 32.3734 23.3968C32.863 23.1939 33.3878 23.0895 33.9178 23.0895H33.9193C36.1513 23.0895 36.5233 24.4245 37.0048 25.0515C37.9558 26.2905 39.8548 25.7475 39.8548 27.363C39.8582 27.5483 39.9101 27.7294 40.0053 27.8884C40.1006 28.0474 40.2358 28.1787 40.3976 28.2691C40.5593 28.3596 40.742 28.406 40.9273 28.4039C41.1126 28.4018 41.2941 28.3511 41.4538 28.257ZM41.9788 28.4565C41.7193 29.0145 41.1388 28.9635 40.8463 29.415C40.5823 29.8215 41.0173 30.033 41.0173 30.033C41.0173 30.033 41.5228 30.267 41.8243 29.5665C41.9803 29.22 42.0343 28.8345 41.9788 28.4565Z" fill="white"/>
</svg>
