<svg width="48" height="48" viewBox="0 0 48 48" fill="none" xmlns="http://www.w3.org/2000/svg">
<rect width="48" height="48" rx="9" fill="#FF6C37"/>
<path d="M33.3571 13.8485C32.8059 13.8557 32.2792 14.0778 31.8892 14.4674L20.866 25.4906L20.106 24.7306L18.5143 23.1389C29.3791 12.3063 31.3372 12.2023 33.3571 13.8485ZM21.319 25.8817L32.31 14.8907C32.4541 14.7396 32.6274 14.6195 32.8195 14.5377C33.0116 14.4559 33.2183 14.4142 33.4271 14.415C33.6358 14.4159 33.8422 14.4593 34.0336 14.5427C34.225 14.626 34.3974 14.7475 34.5402 14.8998C34.683 15.0521 34.7933 15.2318 34.8642 15.4282C34.9352 15.6245 34.9653 15.8333 34.9528 16.0416C34.9403 16.25 34.8855 16.4537 34.7916 16.6401C34.6977 16.8266 34.5667 16.9919 34.4067 17.126L22.7746 27.3373L21.319 25.8817ZM22.1359 27.5997L19.4129 28.1888C19.3804 28.1961 19.3463 28.1923 19.3162 28.178C19.2862 28.1636 19.2618 28.1395 19.247 28.1096C19.2305 28.081 19.2239 28.0477 19.2284 28.015C19.2329 27.9823 19.2482 27.952 19.2718 27.9289L20.8685 26.3322L22.1359 27.5997ZM15.1972 26.4634L18.0984 23.5622L20.2743 25.7356L15.3754 26.7902C15.3346 26.8008 15.2914 26.797 15.253 26.7794C15.2147 26.7618 15.1836 26.7315 15.165 26.6936C15.1419 26.6578 15.1325 26.6148 15.1384 26.5726C15.1443 26.5303 15.1652 26.4916 15.1972 26.4634ZM6.17167 41.4597C6.14693 41.4576 6.12286 41.4505 6.10085 41.439C6.07885 41.4275 6.05934 41.4117 6.04346 41.3926C6.02758 41.3735 6.01564 41.3514 6.00833 41.3277C6.00102 41.304 5.99848 41.279 6.00087 41.2543C6.00556 41.2112 6.02477 41.1711 6.05533 41.1404H6.06028L8.40206 38.7986L11.4271 41.8236L6.17167 41.4597ZM12.1747 38.3506C12.0624 38.4086 11.9729 38.5025 11.9204 38.6174C11.8679 38.7323 11.8554 38.8615 11.885 38.9843L12.3875 41.1256C12.4038 41.1915 12.3978 41.261 12.3707 41.3233C12.3435 41.3855 12.2965 41.4371 12.2371 41.4701C12.1777 41.503 12.1091 41.5155 12.0419 41.5056C11.9747 41.4957 11.9126 41.4639 11.8652 41.4152H11.8578L9.54572 39.1031L8.81794 38.3728L18.1306 29.0701L22.6359 28.0972L24.7995 30.2608C21.6928 32.9887 17.4449 35.7093 12.1747 38.3506ZM25.2426 29.8647H25.2376L23.1607 27.7878L34.7929 17.5765C34.9005 17.481 34.9991 17.3757 35.0875 17.2622C34.7211 20.5916 30.0648 25.295 25.2426 29.8647ZM34.2953 13.8733L34.2879 13.8683C33.4695 13.046 32.9994 11.9398 32.9754 10.7799C32.9514 9.61991 33.3754 8.49531 34.1591 7.63984C34.9429 6.78437 36.0262 6.26383 37.1838 6.18642C38.3414 6.10901 39.4844 6.48068 40.3751 7.22418L36.3896 11.2171C36.362 11.2445 36.34 11.2771 36.3251 11.313C36.3101 11.3489 36.3024 11.3874 36.3024 11.4263C36.3024 11.4652 36.3101 11.5037 36.3251 11.5396C36.34 11.5755 36.362 11.6081 36.3896 11.6354L39.4765 14.7223C38.6327 15.1412 37.6787 15.2845 36.7492 15.1322C35.8196 14.9799 34.9613 14.5395 34.2953 13.8733ZM40.6771 13.8733C40.4723 14.0754 40.2475 14.2562 40.0062 14.4129L37.0159 11.425L40.8107 7.63016C42.447 9.41249 42.3876 12.1652 40.6771 13.8733ZM40.4295 10.0512C40.37 10.0943 40.3254 10.1549 40.3019 10.2245C40.2784 10.2942 40.2771 10.3694 40.2983 10.4398C40.3865 10.6183 40.421 10.8185 40.3977 11.0162C40.3744 11.2139 40.2943 11.4006 40.1671 11.5538C40.1388 11.5895 40.1177 11.6305 40.1052 11.6743C40.0928 11.7182 40.089 11.7641 40.0943 11.8094C40.0996 11.8547 40.1138 11.8985 40.1361 11.9383C40.1583 11.9782 40.1882 12.0132 40.2241 12.0414C40.2835 12.088 40.3565 12.1141 40.432 12.1157C40.4821 12.1152 40.5315 12.1039 40.5768 12.0826C40.6221 12.0612 40.6622 12.0303 40.6944 11.9919C40.907 11.7365 41.0406 11.4246 41.0789 11.0944C41.1171 10.7643 41.0583 10.4301 40.9098 10.1328C40.8838 10.0956 40.8508 10.064 40.8125 10.0397C40.7742 10.0154 40.7315 9.99896 40.6868 9.99136C40.6421 9.98376 40.5963 9.98513 40.5521 9.99539C40.508 10.0057 40.4663 10.0246 40.4295 10.0512Z" fill="white"/>
</svg>
