<svg width="48" height="48" viewBox="0 0 48 48" fill="none" xmlns="http://www.w3.org/2000/svg">
<rect width="48" height="48" rx="9" fill="#242938"/>
<g clip-path="url(#clip0_1_40)">
<path d="M8.34633 28.7285C6.50161 18.9206 11.3769 9.46148 22.567 8.20303C21.0238 6.5542 18.9157 6.54183 17.946 6.7425C16.2333 7.28813 16.287 8.39639 14.3444 9.82781C12.4132 10.9307 11.4433 10.0861 10.0366 11.2296C8.63278 12.3644 9.61238 14.9698 9.02358 15.4764C8.43914 16.4894 6.62635 17.3918 6.2963 18.6712C6.02349 20.3075 7.03655 21.4763 6.9976 22.8789C7.1146 24.0477 5.83407 24.7086 6.018 25.656C6.56911 27.2036 7.63125 28.1351 8.13202 28.5644C8.24677 28.6454 8.36813 28.8447 8.34633 28.7285Z" fill="#FF0090"/>
<path d="M28.2574 15.1517C28.1602 15.1517 28.0639 15.1326 27.9741 15.0953C27.8843 15.0581 27.8026 15.0036 27.7339 14.9348C27.6652 14.8661 27.6106 14.7844 27.5734 14.6946C27.5362 14.6048 27.5171 14.5085 27.5171 14.4113C27.5171 14.314 27.5363 14.2178 27.5735 14.1279C27.6107 14.0381 27.6652 13.9565 27.734 13.8878C27.8028 13.819 27.8844 13.7645 27.9742 13.7273C28.064 13.6901 28.1603 13.6709 28.2576 13.671C28.4539 13.671 28.6422 13.749 28.7811 13.8878C28.9199 14.0267 28.9979 14.215 28.9979 14.4113C28.9979 14.6077 28.9199 14.796 28.7811 14.9349C28.6422 15.0737 28.4539 15.1517 28.2576 15.1517M8.77832 29.7984C7.00546 21.2743 12.4912 14.1518 23.1146 17.6582C29.3481 21.3049 37.1898 21.0674 37.5432 18.7101C38.416 15.8843 33.5691 10.0608 26.3224 8.54137C11.9458 5.73605 4.19521 21.2743 8.77832 29.7982" fill="url(#paint0_radial_1_40)"/>
<path d="M32.3614 30.749C34.4961 30.9803 36.5225 30.468 38.4003 28.9373C35.5633 32.1018 32.0159 33.6929 27.9458 34.1257C29.8892 35.7779 31.7633 36.5221 33.5562 36.2036C28.5744 37.5783 24.4005 36.0652 19.3231 31.0089C19.0573 32.37 20.4949 34.4908 21.9767 35.8444C13.3792 32.1172 12.6254 20.506 23.1091 17.6499C12.2416 12.4285 6.09647 22.5738 9.11555 30.8887C12.0697 37.2927 19.9416 42.223 28.5692 41.1388C32.7598 40.6255 39.0179 37.7361 41.5745 30.8887C39.7726 32.5056 36.5519 33.9138 35.1147 34.0218C39.9789 31.5908 42.605 27.4599 41.8678 21.8141C40.8602 24.2129 39.5308 26.0552 37.8679 27.3204C41.4004 21.814 40.7943 18.9679 38.1796 15.84C40.0497 20.9829 37.6305 26.6907 32.3614 30.749Z" fill="url(#paint1_radial_1_40)"/>
<path d="M29.865 36.674C29.4959 36.6051 30.7018 37.1624 28.3705 36.5452C26.0393 35.9281 23.6657 35.3334 19.3231 31.0088C19.0573 32.37 20.4949 34.4906 21.9767 35.8444C25.9766 38.6341 23.2564 37.3294 29.3511 39.4363C29.8402 38.4629 29.865 37.5977 29.865 36.674Z" fill="url(#paint2_linear_1_40)"/>
<path d="M22.1158 14.7681C22.1158 14.7681 22.6456 13.986 22.8519 13.6333C23.1048 13.201 23.4929 12.4132 23.4929 12.4132C23.4929 12.4132 19.4142 11.0825 18.4132 10.92C15.3016 11.7278 15.2904 13.0314 17.0299 15.0267C17.2234 15.2489 22.1158 14.7681 22.1158 14.7681Z" fill="url(#paint3_linear_1_40)"/>
</g>
<defs>
<radialGradient id="paint0_radial_1_40" cx="0" cy="0" r="1" gradientUnits="userSpaceOnUse" gradientTransform="translate(2384.78 825.388) scale(2712.61 1940.46)">
<stop stop-color="#F80090"/>
<stop offset="1" stop-color="#4D008E"/>
</radialGradient>
<radialGradient id="paint1_radial_1_40" cx="0" cy="0" r="1" gradientUnits="userSpaceOnUse" gradientTransform="translate(2320.87 127.764) scale(2749.5 2079.89)">
<stop stop-color="#57008E"/>
<stop offset="0.29175" stop-color="#5C008E"/>
<stop offset="1" stop-color="#F80090"/>
</radialGradient>
<linearGradient id="paint2_linear_1_40" x1="212.148" y1="31.0088" x2="698.163" y2="848.371" gradientUnits="userSpaceOnUse">
<stop stop-color="#F70090"/>
<stop offset="0.66971" stop-color="#E50090"/>
<stop offset="0.82715" stop-color="#D6008F" stop-opacity="0.2"/>
<stop offset="1" stop-color="#C10090" stop-opacity="0"/>
</linearGradient>
<linearGradient id="paint3_linear_1_40" x1="511.006" y1="308.986" x2="440.473" y2="173.897" gradientUnits="userSpaceOnUse">
<stop stop-color="#B2008F" stop-opacity="0.151"/>
<stop offset="0.40035" stop-color="#F70090" stop-opacity="0.4"/>
<stop offset="0.649" stop-color="#F60090" stop-opacity="0.892"/>
<stop offset="1" stop-color="#FF0090"/>
</linearGradient>
<clipPath id="clip0_1_40">
<rect width="36" height="34.7344" fill="white" transform="translate(6 6.63281)"/>
</clipPath>
</defs>
</svg>
