<svg width="48" height="48" viewBox="0 0 48 48" fill="none" xmlns="http://www.w3.org/2000/svg">
<rect width="48" height="48" rx="9" fill="#CC6699"/>
<path d="M22.9785 30.9142C22.9616 30.948 22.9447 30.975 22.9785 30.9142ZM36.992 26.0205C35.8607 26.0201 34.7444 26.28 33.7295 26.7799C33.3977 26.1105 33.0545 25.5255 32.9983 25.0867C32.9308 24.5749 32.8577 24.2711 32.9364 23.6636C33.0152 23.0561 33.3695 22.1955 33.3639 22.1336C33.3583 22.0717 33.2852 21.7624 32.5595 21.7567C31.8339 21.7511 31.2095 21.8974 31.137 22.0886C31.0088 22.4381 30.9091 22.7974 30.8389 23.163C30.7095 23.8211 29.3882 26.1724 28.64 27.3986C28.3925 26.9205 28.1844 26.4986 28.1394 26.1611C28.0719 25.6492 27.9988 25.3455 28.0775 24.738C28.1563 24.1305 28.5107 23.2699 28.505 23.208C28.4994 23.1461 28.4263 22.8367 27.7012 22.8311C26.9762 22.8255 26.3512 22.9717 26.2781 23.163C26.205 23.3542 26.1262 23.8042 25.98 24.2374C25.8337 24.6705 24.0737 28.5855 23.613 29.6036C23.3767 30.1211 23.1742 30.5374 23.028 30.8186C23.0055 30.8636 22.9886 30.8917 22.9774 30.9142C22.9942 30.8861 23.0055 30.858 23.0055 30.8692C22.8817 31.1111 22.8086 31.2461 22.8086 31.2461V31.2517C22.713 31.4317 22.6061 31.5949 22.5555 31.5949C22.5217 31.5949 22.4486 31.1224 22.5724 30.4755C22.8367 29.1142 23.4611 26.9992 23.4555 26.9261C23.4499 26.8867 23.5736 26.5211 23.0449 26.3242C22.533 26.1386 22.3474 26.448 22.3024 26.448C22.2574 26.448 22.2236 26.5605 22.2236 26.5605C22.2236 26.5605 22.7917 24.1755 21.1329 24.1755C20.0979 24.1755 18.6579 25.3117 17.9503 26.3411C17.5059 26.583 16.544 27.1061 15.5315 27.663C15.1434 27.8767 14.744 28.0961 14.3672 28.3042C14.339 28.2761 14.3165 28.248 14.2884 28.2199C12.2752 26.0711 8.55823 24.5524 8.71573 21.6667C8.77198 20.6149 9.13761 17.853 15.8634 14.5005C21.3759 11.7555 25.7831 12.5092 26.5419 14.1855C27.6332 16.5761 24.1856 21.0255 18.461 21.6667C16.2791 21.9086 15.1322 21.0649 14.8453 20.7499C14.5472 20.418 14.5022 20.4011 14.3897 20.463C14.204 20.5642 14.3222 20.8567 14.3897 21.0311C14.5584 21.4755 15.2615 22.263 16.4591 22.6567C17.511 22.9999 20.0692 23.1911 23.1624 21.993C26.6375 20.6542 29.3426 16.9249 28.5495 13.803C27.7417 10.6305 22.4812 9.58987 17.507 11.3561C14.5432 12.408 11.3381 14.0617 9.03242 16.2161C6.29361 18.7811 5.85542 21.0142 6.03542 21.948C6.67611 25.2611 11.2425 27.4211 13.07 29.0186C12.98 29.0692 12.8957 29.1142 12.8169 29.1592C11.9006 29.6149 8.4193 31.4374 7.54798 33.3611C6.56361 35.5436 7.71111 37.1074 8.4643 37.3211C10.815 37.9736 13.2219 36.798 14.5151 34.8686C15.8083 32.9392 15.6514 30.4192 15.0551 29.2717C15.0495 29.2549 15.0382 29.2436 15.0326 29.2267C15.2689 29.0861 15.5107 28.9455 15.7526 28.8049C16.2189 28.5292 16.6745 28.2761 17.0739 28.0567C16.8489 28.6642 16.6858 29.3955 16.6014 30.453C16.5002 31.6905 17.012 33.2936 17.6758 33.9236C17.9683 34.1992 18.3221 34.2049 18.5415 34.2049C19.3177 34.2049 19.6665 33.5636 20.054 32.7986C20.5322 31.8649 20.954 30.7792 20.954 30.7792C20.954 30.7792 20.4253 33.7155 21.8709 33.7155C22.3991 33.7155 22.9279 33.0349 23.1647 32.6861V32.6917C23.1647 32.6917 23.1759 32.6692 23.204 32.6242C23.2603 32.5399 23.2884 32.4892 23.2884 32.4892V32.4724C23.5022 32.1067 23.969 31.2686 24.6716 29.8849C25.5829 28.0961 26.4542 25.863 26.4542 25.863C26.5384 26.3539 26.6549 26.8387 26.8029 27.3142C26.9604 27.8486 27.2923 28.4336 27.5567 29.0017C27.3429 29.2942 27.2135 29.463 27.2135 29.463C27.214 29.4673 27.216 29.4713 27.2192 29.4742C27.0504 29.6992 26.8592 29.9411 26.6623 30.1774C25.9429 31.0324 25.0873 32.0111 24.9748 32.2924C24.8398 32.6242 24.8735 32.8717 25.1323 33.063C25.3235 33.2092 25.661 33.2317 26.0149 33.2036C26.6617 33.1586 27.1174 33.0011 27.3367 32.8999C27.7412 32.7549 28.1234 32.5542 28.4724 32.3036C29.1755 31.7861 29.603 31.0436 29.5637 30.0649C29.5412 29.5249 29.3668 28.9849 29.153 28.4786C29.2149 28.3886 29.2824 28.293 29.3443 28.1974C30.4575 26.5717 31.3181 24.7875 31.3181 24.7875C31.4023 25.2784 31.5188 25.7632 31.6669 26.2387C31.8019 26.6944 32.0657 27.195 32.3075 27.6844C31.2619 28.5337 30.615 29.5181 30.39 30.165C29.9737 31.3631 30.3 31.9031 30.9131 32.0269C31.1887 32.0831 31.5825 31.9537 31.875 31.83C32.3094 31.6853 32.719 31.4747 33.0894 31.2056C33.7925 30.6881 34.4726 29.9625 34.4276 28.9781C34.4107 28.5337 34.287 28.0894 34.1239 27.6619C35.007 27.2906 36.1539 27.0881 37.6164 27.2569C40.7484 27.6225 41.3615 29.58 41.2434 30.3956C41.1253 31.2112 40.4672 31.6669 40.2478 31.8019C40.0284 31.9369 39.9609 31.9875 39.9778 32.0887C40.0059 32.235 40.1072 32.2294 40.2928 32.1956C40.5516 32.1506 41.9347 31.5319 41.9966 30.0187C42.0866 28.1062 40.2478 26.0025 36.9904 26.0194L36.992 26.0205ZM12.8507 34.1599C11.8162 35.2905 10.365 35.718 9.74117 35.358C9.0718 34.9687 9.33617 33.3049 10.6125 32.1C11.3887 31.3687 12.3894 30.6937 13.0532 30.2775C13.205 30.1875 13.4244 30.0525 13.6944 29.8894C13.7394 29.8612 13.7619 29.85 13.7619 29.85C13.8125 29.8162 13.8688 29.7881 13.925 29.7544C14.3914 31.4644 13.9419 32.9719 12.8507 34.1587V34.1599ZM20.4084 29.0186C20.0484 29.9017 19.2896 32.1517 18.8284 32.0336C18.4346 31.9324 18.1927 30.2167 18.7496 28.5292C19.0309 27.6799 19.6271 26.6674 19.9815 26.2736C20.549 25.638 21.1734 25.4355 21.3197 25.6886C21.5165 26.0205 20.6334 28.4674 20.4084 29.0186ZM26.6522 31.9999C26.5003 32.0786 26.3597 32.1292 26.2922 32.0899C26.2415 32.0617 26.354 31.9549 26.354 31.9549C26.354 31.9549 27.1359 31.1167 27.4453 30.7342C27.6253 30.5092 27.8334 30.2449 28.0579 29.9524C28.0579 29.9805 28.0635 30.0086 28.0635 30.0424C28.0562 31.0492 27.0892 31.7299 26.6505 31.9999H26.6522ZM31.466 30.903C31.3535 30.8242 31.3704 30.5599 31.7473 29.7386C31.8935 29.418 32.2305 28.878 32.816 28.3605C32.8823 28.5564 32.9184 28.7612 32.9229 28.968C32.9173 30.2336 32.0117 30.7061 31.4666 30.903H31.466Z" fill="white"/>
</svg>
