<svg width="48" height="48" viewBox="0 0 48 48" fill="none" xmlns="http://www.w3.org/2000/svg">
<rect width="48" height="48" rx="9" fill="#FF4785"/>
<path d="M31.0651 6.3639L30.8851 10.4289C30.8829 10.4803 30.8955 10.5313 30.9213 10.5758C30.9471 10.6203 30.9851 10.6565 31.0308 10.6802C31.0765 10.7038 31.128 10.7139 31.1793 10.7092C31.2305 10.7046 31.2794 10.6854 31.3201 10.6539L32.9101 9.45389L34.2601 10.5039C34.2997 10.5305 34.3457 10.5461 34.3933 10.5491C34.4409 10.5521 34.4885 10.5425 34.5312 10.5211C34.5739 10.4998 34.6102 10.4675 34.6363 10.4276C34.6625 10.3877 34.6776 10.3415 34.6801 10.2939L34.5301 6.1539L36.5251 6.00391C36.7712 5.98766 37.0181 6.02219 37.2503 6.10535C37.4826 6.18851 37.6953 6.31852 37.8752 6.48731C38.0551 6.6561 38.1984 6.86007 38.2961 7.08656C38.3939 7.31304 38.4441 7.55721 38.4436 7.8039V40.1978C38.4439 40.4419 38.3945 40.6836 38.2985 40.908C38.2024 41.1325 38.0617 41.3351 37.885 41.5034C37.7082 41.6718 37.499 41.8025 37.2701 41.8875C37.0412 41.9724 36.7974 42.01 36.5536 41.9977L12.4097 40.9178C11.9556 40.8991 11.5254 40.7093 11.2054 40.3865C10.8855 40.0638 10.6995 39.632 10.6847 39.1778L9.55969 9.48239C9.5455 9.24592 9.57812 9.00898 9.65568 8.78514C9.73325 8.56131 9.85423 8.35498 10.0117 8.178C10.1692 8.00103 10.36 7.85687 10.5733 7.7538C10.7866 7.65074 11.0182 7.59079 11.2547 7.5774L31.0501 6.3324L31.0651 6.3639ZM26.4601 19.9493C26.4601 20.6543 31.2001 20.3093 31.8451 19.8293C31.8451 15.0294 29.2651 12.4944 24.5566 12.4944C19.8316 12.4944 17.2082 15.0744 17.2082 18.9293C17.2082 25.6043 26.2066 25.7243 26.2066 29.3678C26.2066 30.4178 25.7266 31.0178 24.6316 31.0178C23.1916 31.0178 22.6066 30.2828 22.6816 27.7778C22.6816 27.2378 17.2082 27.0578 17.0282 27.7778C16.6232 33.8228 20.3731 35.5778 24.6766 35.5778C28.8616 35.5778 32.1301 33.3428 32.1301 29.3078C32.1301 22.1528 22.9816 22.3478 22.9816 18.8093C22.9816 17.3544 24.0616 17.1594 24.6766 17.1594C25.3516 17.1594 26.5516 17.2644 26.4616 19.9643L26.4601 19.9493Z" fill="white"/>
</svg>
