<svg width="48" height="48" viewBox="0 0 48 48" fill="none" xmlns="http://www.w3.org/2000/svg">
<rect width="48" height="48" rx="9" fill="#242938"/>
<g clip-path="url(#clip0_1_108)">
<path d="M10.8525 38.535L6 9.77255L14.9737 6.0488L20.7037 9.45375L25.9537 6.62255L36.8925 10.8225L30.7575 42L10.8525 38.535Z" fill="url(#paint0_linear_1_108)"/>
<path d="M42 18.1912L37.3538 6.7162L28.9237 6L15.9113 18.5025L19.4138 34.6162L25.9537 39.2025L42 29.6812L38.0625 22.2975L42 18.1912Z" fill="url(#paint1_linear_1_108)"/>
<path d="M34.7888 16.4812L38.0625 22.2975L42 18.1912L39.1088 11.0438L34.7888 16.4812Z" fill="url(#paint2_linear_1_108)"/>
<path d="M12.75 12.75H35.25V35.25H12.75V12.75Z" fill="black"/>
<path d="M15.555 30.9975H23.9925V32.4037H15.555V30.9975ZM23.5425 15.5513L22.2862 20.475L20.85 15.5513H19.4212L17.9812 20.475L16.7287 15.5513H14.7599L17.1712 23.9925H18.7537L20.1338 19.1062L21.4987 23.9925H23.1L25.5075 15.5513H23.5425ZM25.86 22.8225L26.9587 21.4725C27.6489 22.1099 28.5471 22.475 29.4862 22.5C30.2363 22.5 30.7088 22.2 30.7088 21.7012V21.6787C30.7088 21.4117 30.6153 21.2189 30.2788 21.036L30.225 21.0079L30.1674 20.9801C30.1573 20.9753 30.1472 20.9706 30.137 20.966L30.0732 20.9382C30.062 20.9334 30.0509 20.9287 30.0397 20.9241L29.9694 20.8963L29.8947 20.8681C29.8817 20.8634 29.8687 20.8587 29.8556 20.8541L29.7741 20.826L29.7315 20.8116L29.6429 20.7829L29.5491 20.754C29.5328 20.749 29.5165 20.7442 29.5003 20.7393L29.399 20.7098L29.2924 20.6797L29.1806 20.6493L29.0632 20.6183L28.8375 20.5598L28.6766 20.5166L28.5714 20.4875L28.4682 20.4579L28.367 20.4277L28.2675 20.3972L28.17 20.366L28.0743 20.334C28.0587 20.3287 28.043 20.3233 28.0274 20.3179L27.9348 20.2848L27.8444 20.2509L27.756 20.2161L27.6696 20.1802C27.6555 20.1742 27.6414 20.1681 27.6273 20.1619L27.5442 20.1244L27.4632 20.0857C26.6782 19.6993 26.2132 19.13 26.1978 18.0694L26.1975 17.9887C26.1975 16.4711 27.4055 15.4603 29.1057 15.4392L29.1599 15.4388C30.3012 15.4185 31.4133 15.7994 32.3025 16.515L31.335 17.9175C30.7028 17.423 29.935 17.1326 29.1338 17.085C28.4212 17.085 28.0462 17.4113 28.0462 17.835V17.8613C28.0462 18.1991 28.1851 18.4035 28.6214 18.5963L28.6855 18.6239C28.7077 18.633 28.7305 18.6422 28.754 18.6512L28.8268 18.6786L28.9039 18.7062L28.9854 18.7337L29.0714 18.7617L29.1622 18.7898L29.2577 18.8184L29.41 18.8623L29.5178 18.8922L29.6308 18.9227L29.8725 18.9863C29.9124 18.9967 29.9519 19.0074 29.991 19.0179L30.1072 19.0503C30.1265 19.0556 30.1455 19.0611 30.1644 19.0666L30.2769 19.0998L30.3868 19.1338L30.4943 19.1685L30.5992 19.204L30.7016 19.2405L30.7518 19.259L30.8503 19.2969C31.9365 19.7251 32.5396 20.3421 32.5572 21.4776L32.5575 21.5513C32.5575 23.2312 31.2749 24.1763 29.4488 24.1763C28.1268 24.1815 26.8492 23.6996 25.86 22.8225Z" fill="white"/>
</g>
<defs>
<linearGradient id="paint0_linear_1_108" x1="1362.06" y1="76.1896" x2="2276.09" y2="3367.35" gradientUnits="userSpaceOnUse">
<stop offset="0.28" stop-color="#07C3F2"/>
<stop offset="0.94" stop-color="#087CFA"/>
</linearGradient>
<linearGradient id="paint1_linear_1_108" x1="878.484" y1="506.628" x2="2263.17" y2="2537.06" gradientUnits="userSpaceOnUse">
<stop offset="0.14" stop-color="#FCF84A"/>
<stop offset="0.37" stop-color="#07C3F2"/>
</linearGradient>
<linearGradient id="paint2_linear_1_108" x1="355.084" y1="293.038" x2="553.079" y2="994.251" gradientUnits="userSpaceOnUse">
<stop offset="0.28" stop-color="#07C3F2"/>
<stop offset="0.94" stop-color="#087CFA"/>
</linearGradient>
<clipPath id="clip0_1_108">
<rect width="36" height="36" fill="white" transform="translate(6 6)"/>
</clipPath>
</defs>
</svg>
